<svg width="32" height="32" viewBox="0 0 32 32" fill="none" xmlns="http://www.w3.org/2000/svg">
<g id="ion:woman" clip-path="url(#clip0_114_497)">
<path id="Vector" d="M15.9844 7C17.9174 7 19.4844 5.433 19.4844 3.5C19.4844 1.567 17.9174 0 15.9844 0C14.0514 0 12.4844 1.567 12.4844 3.5C12.4844 5.433 14.0514 7 15.9844 7Z" fill="#08293F"/>
<path id="Vector_2" d="M24.6644 17.3687L24.0187 15.2181V15.2112L22.615 10.5325H22.6119L22.455 10.0044C22.2828 9.42527 21.9281 8.91727 21.4439 8.55599C20.9596 8.19472 20.3717 7.99949 19.7675 7.99937H12.2675C11.6632 7.99919 11.0751 8.1943 10.5908 8.55562C10.1065 8.91694 9.75194 9.42511 9.57999 10.0044L9.42311 10.5325H9.41936L8.01561 15.2112V15.2181L7.36749 17.3687C7.17249 18.0181 7.51124 18.7225 8.15311 18.94C8.31213 18.9941 8.48042 19.0157 8.64794 19.0033C8.81546 18.9909 8.97877 18.9449 9.12812 18.868C9.27746 18.7912 9.40978 18.685 9.51716 18.5558C9.62455 18.4266 9.7048 18.2771 9.75311 18.1162L11.3519 12.7881L11.4875 12.3362C11.5271 12.2258 11.6043 12.1328 11.7055 12.0735C11.8068 12.0143 11.9256 11.9925 12.0413 12.012C12.157 12.0315 12.2621 12.0911 12.3383 12.1803C12.4145 12.2695 12.4569 12.3827 12.4581 12.5C12.4581 12.5338 12.4545 12.5675 12.4475 12.6006L9.71436 21.7125C9.66955 21.8618 9.66026 22.0195 9.68723 22.173C9.7142 22.3266 9.7767 22.4717 9.86972 22.5968C9.96274 22.7218 10.0837 22.8234 10.223 22.8935C10.3623 22.9635 10.516 23 10.6719 23H12.4844V30.1681C12.4844 31.1969 13.1425 32 13.9844 32C14.8262 32 15.4844 31.1969 15.4844 30.1681V23H16.4844V30.1681C16.4844 31.1969 17.1425 32 17.9844 32C18.8262 32 19.4844 31.1969 19.4844 30.1681V23H21.3594C21.5153 23.0001 21.6691 22.9636 21.8084 22.8937C21.9478 22.8237 22.0689 22.7221 22.1619 22.597C22.255 22.4719 22.3176 22.3268 22.3446 22.1732C22.3716 22.0196 22.3623 21.8619 22.3175 21.7125L19.5837 12.5994C19.5769 12.5667 19.5735 12.5334 19.5737 12.5C19.5744 12.3823 19.6165 12.2686 19.6927 12.179C19.7689 12.0893 19.8743 12.0294 19.9903 12.0097C20.1063 11.9901 20.2256 12.012 20.327 12.0716C20.4285 12.1312 20.5057 12.2247 20.545 12.3356L20.6806 12.7875L22.2787 18.1156C22.3273 18.2763 22.4076 18.4255 22.5151 18.5544C22.6225 18.6833 22.7548 18.7893 22.904 18.866C23.0533 18.9427 23.2164 18.9885 23.3838 19.0008C23.5511 19.0131 23.7193 18.9916 23.8781 18.9375C24.52 18.7225 24.8587 18.0181 24.6644 17.3687Z" fill="#08293F"/>
</g>
<defs>
<clipPath id="clip0_114_497">
<rect width="32" height="32" fill="white"/>
</clipPath>
</defs>
</svg>
