<svg width="32" height="32" viewBox="0 0 32 32" fill="none" xmlns="http://www.w3.org/2000/svg">
<g id="ion:man">
<path id="Vector" d="M16 7C17.933 7 19.5 5.433 19.5 3.5C19.5 1.567 17.933 0 16 0C14.067 0 12.5 1.567 12.5 3.5C12.5 5.433 14.067 7 16 7Z" fill="#D8FD00"/>
<path id="Vector_2" d="M19 8H13C11.9401 8.00313 10.9245 8.42557 10.175 9.17503C9.42557 9.9245 9.00313 10.9401 9 12V18.72C9 19.3981 9.52688 19.975 10.2044 19.9994C10.3723 20.0055 10.5397 19.9777 10.6966 19.9177C10.8535 19.8577 10.9967 19.7666 11.1177 19.65C11.2386 19.5334 11.3348 19.3936 11.4005 19.2389C11.4662 19.0843 11.5 18.918 11.5 18.75V12.5169C11.4984 12.3879 11.5456 12.2631 11.6322 12.1674C11.7188 12.0718 11.8384 12.0124 11.9669 12.0013C12.0353 11.9967 12.1039 12.0063 12.1684 12.0294C12.2329 12.0525 12.292 12.0886 12.342 12.1354C12.392 12.1823 12.4319 12.239 12.459 12.3019C12.4862 12.3649 12.5002 12.4327 12.5 12.5013V30.5625C12.5 30.9437 12.6515 31.3094 12.921 31.579C13.1906 31.8485 13.5563 32 13.9375 32C14.3187 32 14.6844 31.8485 14.954 31.579C15.2235 31.3094 15.375 30.9437 15.375 30.5625V21.6462C15.3728 21.4848 15.4316 21.3286 15.5398 21.2087C15.6479 21.0889 15.7973 21.0143 15.9581 21C16.0437 20.9943 16.1295 21.0062 16.2102 21.035C16.2909 21.0638 16.3648 21.1089 16.4274 21.1676C16.4899 21.2262 16.5398 21.297 16.5738 21.3757C16.6077 21.4544 16.6252 21.5393 16.625 21.625V30.5625C16.625 30.9437 16.7765 31.3094 17.046 31.579C17.3156 31.8485 17.6813 32 18.0625 32C18.4437 32 18.8094 31.8485 19.079 31.579C19.3485 31.3094 19.5 30.9437 19.5 30.5625V12.5169C19.4984 12.3879 19.5456 12.2631 19.6322 12.1674C19.7188 12.0718 19.8384 12.0124 19.9669 12.0013C20.0353 11.9967 20.1039 12.0063 20.1684 12.0294C20.2329 12.0525 20.292 12.0886 20.342 12.1354C20.392 12.1823 20.4319 12.239 20.459 12.3019C20.4862 12.3649 20.5002 12.4327 20.5 12.5013V18.7213C20.5 19.3994 21.0269 19.9763 21.7044 20.0006C21.8724 20.0068 22.0399 19.9789 22.1969 19.9188C22.3539 19.8587 22.4972 19.7676 22.6181 19.6508C22.7391 19.5341 22.8352 19.3941 22.9009 19.2393C22.9665 19.0845 23.0002 18.9181 23 18.75V12C22.9969 10.9401 22.5744 9.9245 21.825 9.17503C21.0755 8.42557 20.0599 8.00313 19 8Z" fill="#D8FD00"/>
</g>
</svg>
