<svg width="32" height="44" viewBox="0 0 32 44" fill="none" xmlns="http://www.w3.org/2000/svg">
<path fill-rule="evenodd" clip-rule="evenodd" d="M11.7581 37.8575H4.5008C3.30681 37.8575 2.16412 37.3706 1.31992 36.5068C0.475732 35.6429 0 34.4736 0 33.2518V4.60571C0 3.38388 0.475732 2.21456 1.31992 1.35069C2.16412 0.486821 3.30681 0 4.5008 0H19.5004C20.6944 0 21.8371 0.486821 22.6812 1.35069C23.5254 2.21456 24.0012 3.38388 24.0012 4.60571V17.9837L26.7483 19.3917C29.9665 21.0383 32 24.4031 32 28.0829V42.4632C32 43.3127 31.3284 44 30.4982 44C29.668 44 28.9964 43.3127 28.9964 42.4632V28.0829C28.9964 25.5629 27.6065 23.2624 25.4004 22.136L23.9965 21.4153V29.3715C23.9965 32.364 21.6225 34.7886 18.7028 34.7886C17.2336 34.7886 15.6432 34.0774 14.7057 32.8938L12.2198 29.7438C12.1218 29.6197 11.9773 29.5529 11.8233 29.5529C11.6694 29.5529 11.5249 29.6292 11.4316 29.7533L10.9605 30.3881C10.8346 30.5599 10.8252 30.7938 10.9418 30.9752L17.7513 41.6184C18.2038 42.3248 18.0125 43.2793 17.3176 43.7423C16.6273 44.2052 15.6945 44.0095 15.2421 43.2984L11.7581 37.8527V37.8575ZM20.9975 29.3667V4.60571C20.9975 4.20002 20.8389 3.80866 20.5591 3.52229C20.2793 3.23593 19.8968 3.07365 19.5004 3.07365H17.1264C17.0471 3.40297 16.9585 3.75138 16.8792 4.0807C16.6553 4.9923 15.8577 5.63185 14.9389 5.63185H9.06224C8.14342 5.63185 7.34587 4.9923 7.12199 4.0807C7.04271 3.75138 6.95409 3.40297 6.8748 3.07365H4.5008C4.10436 3.07365 3.72191 3.23593 3.44206 3.52229C3.16222 3.80866 3.00364 4.20002 3.00364 4.60571V33.2565C3.00364 33.6622 3.16222 34.0536 3.44206 34.34C3.72191 34.6263 4.10436 34.7886 4.5008 34.7886H9.79449L8.43259 32.6599C7.62105 31.3904 7.67701 29.7342 8.57718 28.5267L9.04824 27.8967C9.69655 27.0185 10.7086 26.5031 11.7814 26.4888C12.8541 26.4745 13.8755 26.9613 14.5518 27.8204L17.0377 30.9656C17.4249 31.4572 18.0918 31.7197 18.6981 31.7197C19.9668 31.7197 20.9929 30.6697 20.9929 29.3715L20.9975 29.3667Z" fill="#08293F"/>
<path d="M11.7669 10.1707C12.7697 10.1707 13.5813 9.34023 13.5813 8.31409C13.5813 7.28794 12.7697 6.45749 11.7669 6.45749C10.7642 6.45749 9.95264 7.28794 9.95264 8.31409C9.95264 9.34023 10.7642 10.1707 11.7669 10.1707Z" fill="#08293F"/>
<path d="M16.5991 16.5328L14.5749 11.7886C14.3697 11.3114 13.9406 10.9916 13.4509 10.9057C13.3763 10.8866 10.1534 10.8866 10.0788 10.9057C9.58905 10.9916 9.15996 11.3066 8.95474 11.7886L6.93521 16.5328C6.81395 16.8191 6.84193 17.1437 7.00517 17.4062C7.17308 17.6687 7.45292 17.8214 7.75608 17.8214C8.11522 17.8214 8.43704 17.6066 8.58162 17.2678L9.34186 15.478V24.8326C9.34186 25.3862 9.78028 25.8396 10.326 25.8396C10.8717 25.8396 11.3101 25.391 11.3101 24.8326V18.523H12.2196V24.8326C12.2196 25.3862 12.658 25.8396 13.2037 25.8396C13.7494 25.8396 14.1878 25.391 14.1878 24.8326V15.4732L14.948 17.263C15.0926 17.5971 15.4144 17.8166 15.7736 17.8166C16.0767 17.8166 16.3612 17.6591 16.5245 17.4014C16.6924 17.1437 16.7204 16.8144 16.5944 16.528L16.5991 16.5328Z" fill="#08293F"/>
</svg>
