<svg width="27" height="44" viewBox="0 0 27 44" fill="none" xmlns="http://www.w3.org/2000/svg">
<g clip-path="url(#clip0_1713_180)">
<path d="M4.76471 0H22.2353C24.8668 0 27 2.11063 27 4.71429V39.2857C27 41.8894 24.8668 44 22.2353 44H4.76471C2.1332 44 0 41.8894 0 39.2857V4.71429C0 2.11063 2.1332 0 4.76471 0ZM3.17647 39.2857C3.17647 40.1539 3.88721 40.8571 4.76471 40.8571H22.2353C23.1128 40.8571 23.8235 40.1539 23.8235 39.2857V4.71429C23.8235 3.84607 23.1128 3.14286 22.2353 3.14286H20.6471C20.6471 4.01107 19.9363 4.71429 19.0588 4.71429H7.94118C7.06368 4.71429 6.35294 4.01107 6.35294 3.14286H4.76471C3.88721 3.14286 3.17647 3.84607 3.17647 4.71429V39.2857Z" fill="#08293F"/>
<path d="M13.8083 12.9199C15.2976 12.9199 16.5028 11.6864 16.5028 10.1623C16.5028 8.6382 15.2976 7.40472 13.8083 7.40472C12.319 7.40472 11.1138 8.6382 11.1138 10.1623C11.1138 11.6864 12.319 12.9199 13.8083 12.9199Z" fill="#08293F"/>
<path d="M20.9845 22.3695L17.9783 15.3231C17.6735 14.6142 17.0362 14.1392 16.3089 14.0116C16.1981 13.9833 11.4117 13.9833 11.3008 14.0116C10.5735 14.1392 9.93626 14.6071 9.63148 15.3231L6.63218 22.3695C6.45208 22.7948 6.49364 23.2769 6.73608 23.6668C6.98544 24.0567 7.40105 24.2835 7.85129 24.2835C8.38466 24.2835 8.86261 23.9645 9.07734 23.4612L10.2064 20.8028V34.6972C10.2064 35.5195 10.8575 36.193 11.668 36.193C12.4784 36.193 13.1295 35.5266 13.1295 34.6972V25.3256H14.4802V34.6972C14.4802 35.5195 15.1314 36.193 15.9418 36.193C16.7522 36.193 17.4034 35.5266 17.4034 34.6972V20.7958L18.5324 23.4541C18.7472 23.9503 19.2251 24.2764 19.7585 24.2764C20.2087 24.2764 20.6312 24.0425 20.8737 23.6597C21.123 23.2769 21.1646 22.7878 20.9776 22.3624L20.9845 22.3695Z" fill="#08293F"/>
</g>
<defs>
<clipPath id="clip0_1713_180">
<rect width="27" height="44" fill="white" transform="matrix(-1 0 0 1 27 0)"/>
</clipPath>
</defs>
</svg>
